<?xml version="1.0" encoding="UTF-8"?>
<svg width="18px" height="18px" viewBox="0 0 18 18" version="1.1" xmlns="http://www.w3.org/2000/svg" xmlns:xlink="http://www.w3.org/1999/xlink">
    <!-- Generator: sketchtool 57.1 (101010) - https://sketch.com -->
    <title>B0B11D31-AE45-4AEF-B1AC-90AB3DA48A82</title>
    <desc>Created with sketchtool.</desc>
    <g id="Page-1" stroke="none" stroke-width="1" fill="none" fill-rule="evenodd">
        <g id="Beeline-Academy-Current-Profi-Extra-large:-Desktops---12-col" transform="translate(-330.000000, -968.000000)" fill="#B2B2B2" fill-rule="nonzero">
            <g id="Group-9" transform="translate(158.000000, 693.000000)">
                <g id="Group-2-Copy-2" transform="translate(173.000000, 276.000000)">
                    <path d="M8,16.75 C12.8324916,16.75 16.75,12.8324916 16.75,8 C16.75,3.16750844 12.8324916,-0.75 8,-0.75 C3.16750844,-0.75 -0.75,3.16750844 -0.75,8 C-0.75,12.8324916 3.16750844,16.75 8,16.75 Z M8,15.25 C3.99593556,15.25 0.75,12.0040644 0.75,8 C0.75,3.99593556 3.99593556,0.75 8,0.75 C12.0040644,0.75 15.25,3.99593556 15.25,8 C15.25,12.0040644 12.0040644,15.25 8,15.25 Z" id="Oval"></path>
                    <polygon id="Path-3" points="8.75 7.64269634 8.75 2.4 7.25 2.4 7.25 8.35730366 10.9766866 11.3808578 11.9217509 10.2160172"></polygon>
                </g>
            </g>
        </g>
    </g>
</svg>